<svg width="1600" height="900" viewBox="0 0 1600 900" fill="none" xmlns="http://www.w3.org/2000/svg">
  <rect width="1600" height="900" fill="#244836"/>
  <rect width="1600" height="900" fill="url(#bg)"/>
  <circle cx="1240" cy="150" r="120" fill="#2E5D43" fill-opacity="0.34"/>
  <circle cx="280" cy="200" r="170" fill="#234734" fill-opacity="0.22"/>
  <path d="M0 642C184 580 342 560 474 582C622 606 786 700 924 716C1060 732 1226 676 1384 634C1476 610 1548 604 1600 612V900H0V642Z" fill="#355A43"/>
  <path d="M0 704C164 648 350 646 510 700C652 748 774 824 944 828C1118 832 1276 736 1414 700C1490 680 1552 674 1600 680V900H0V704Z" fill="#2C4E3C"/>
  <g opacity="0.65">
    <path d="M190 460C246 356 332 284 448 242C426 356 374 454 292 536C248 580 168 568 190 460Z" fill="#5E8D65"/>
    <path d="M302 520C352 412 426 322 524 278C514 392 476 490 410 574C374 620 290 622 302 520Z" fill="#6C9B70"/>
    <path d="M1186 482C1102 356 992 278 856 238C888 360 948 454 1036 526C1088 568 1184 584 1186 482Z" fill="#5F8E68"/>
    <path d="M1328 564C1248 434 1130 336 974 286C1000 410 1056 522 1142 612C1190 664 1312 674 1328 564Z" fill="#6C9D74"/>
  </g>
  <g opacity="0.72">
    <rect x="748" y="420" width="18" height="190" rx="9" fill="#7F563A"/>
    <circle cx="758" cy="384" r="118" fill="#4C7B53"/>
    <circle cx="662" cy="414" r="82" fill="#5A8A62"/>
    <circle cx="854" cy="428" r="86" fill="#5D8D64"/>
    <circle cx="734" cy="314" r="18" fill="#C86F52"/>
    <circle cx="790" cy="330" r="20" fill="#D67A5B"/>
    <circle cx="836" cy="384" r="16" fill="#CA7251"/>
  </g>
  <defs>
    <linearGradient id="bg" x1="800" y1="0" x2="800" y2="900" gradientUnits="userSpaceOnUse">
      <stop stop-color="#375C45"/>
      <stop offset="0.58" stop-color="#456B4C"/>
      <stop offset="1" stop-color="#233B2E"/>
    </linearGradient>
  </defs>
</svg>
