<svg width="1600" height="760" viewBox="0 0 1600 760" fill="none" xmlns="http://www.w3.org/2000/svg">
  <rect width="1600" height="760" fill="#214031"/>
  <rect width="1600" height="760" fill="url(#bg)"/>
  <circle cx="1270" cy="120" r="110" fill="#305842" fill-opacity="0.28"/>
  <circle cx="360" cy="148" r="140" fill="#214131" fill-opacity="0.18"/>
  <path d="M0 568C158 528 334 526 480 566C630 608 748 692 924 696C1098 700 1242 610 1384 566C1472 540 1544 532 1600 538V760H0V568Z" fill="#315340"/>
  <path d="M162 454C226 332 334 244 488 190C464 346 400 470 296 562C240 614 132 596 162 454Z" fill="#5B865A" fill-opacity="0.78"/>
  <path d="M1352 462C1270 336 1146 248 988 202C1020 352 1086 474 1180 558C1232 606 1342 604 1352 462Z" fill="#5C895B" fill-opacity="0.78"/>
  <g opacity="0.68">
    <path d="M760 204L704 416H816L760 204Z" fill="#7C563A"/>
    <circle cx="760" cy="256" r="72" fill="#4E7D54"/>
    <circle cx="696" cy="300" r="78" fill="#5A8A5F"/>
    <circle cx="824" cy="308" r="78" fill="#5B8A62"/>
    <circle cx="760" cy="356" r="82" fill="#4C7952"/>
  </g>
  <defs>
    <linearGradient id="bg" x1="800" y1="0" x2="800" y2="760" gradientUnits="userSpaceOnUse">
      <stop stop-color="#365841"/>
      <stop offset="1" stop-color="#20372A"/>
    </linearGradient>
  </defs>
</svg>
