<svg width="800" height="600" viewBox="0 0 800 600" fill="none" xmlns="http://www.w3.org/2000/svg">
  <rect width="800" height="600" rx="40" fill="#F2F4EE"/>
  <rect width="800" height="600" rx="40" fill="url(#bg)"/>
  <circle cx="612" cy="122" r="74" fill="#F2DEC8" fill-opacity="0.72"/>
  <path d="M94 486C94 436.29 134.29 396 184 396H616C665.71 396 706 436.29 706 486V600H94V486Z" fill="#DCE7D5"/>
  <rect x="386" y="324" width="30" height="122" rx="15" fill="#845639"/>
  <circle cx="400" cy="278" r="86" fill="#5E8A62"/>
  <circle cx="334" cy="306" r="58" fill="#6E9C70"/>
  <circle cx="472" cy="312" r="58" fill="#6E9C70"/>
  <circle cx="340" cy="254" r="22" fill="#F4EEE4"/>
  <circle cx="382" cy="224" r="22" fill="#F4EEE4"/>
  <circle cx="430" cy="232" r="22" fill="#F4EEE4"/>
  <circle cx="464" cy="270" r="22" fill="#F4EEE4"/>
  <circle cx="402" cy="294" r="22" fill="#F4EEE4"/>
  <circle cx="310" cy="332" r="18" fill="#F7F3EA"/>
  <circle cx="494" cy="336" r="18" fill="#F7F3EA"/>
  <defs>
    <linearGradient id="bg" x1="400" y1="0" x2="400" y2="600" gradientUnits="userSpaceOnUse">
      <stop stop-color="#F7F7F2"/>
      <stop offset="1" stop-color="#DFE9D8"/>
    </linearGradient>
  </defs>
</svg>
