<svg width="800" height="600" viewBox="0 0 800 600" fill="none" xmlns="http://www.w3.org/2000/svg">
  <rect width="800" height="600" rx="40" fill="#F7F3EE"/>
  <rect width="800" height="600" rx="40" fill="url(#bg)"/>
  <circle cx="612" cy="122" r="74" fill="#F0E0C8" fill-opacity="0.72"/>
  <path d="M98 488C98 438.29 138.29 398 188 398H612C661.71 398 702 438.29 702 488V600H98V488Z" fill="#DDE8D4"/>
  <rect x="338" y="290" width="10" height="126" rx="5" fill="#6D925D"/>
  <rect x="392" y="274" width="10" height="142" rx="5" fill="#6D925D"/>
  <rect x="448" y="304" width="10" height="112" rx="5" fill="#6D925D"/>
  <circle cx="342" cy="256" r="44" fill="#F4E6ED"/>
  <circle cx="398" cy="236" r="52" fill="#F8F1E5"/>
  <circle cx="452" cy="270" r="42" fill="#F1E3EE"/>
  <circle cx="342" cy="256" r="18" fill="#D36B84"/>
  <circle cx="398" cy="236" r="18" fill="#D9A84F"/>
  <circle cx="452" cy="270" r="18" fill="#BE6C92"/>
  <path d="M228 392C228 350.58 261.58 317 303 317C344.42 317 378 350.58 378 392V416H228V392Z" fill="#8CB17B"/>
  <defs>
    <linearGradient id="bg" x1="400" y1="0" x2="400" y2="600" gradientUnits="userSpaceOnUse">
      <stop stop-color="#FAF5EF"/>
      <stop offset="1" stop-color="#E5EFDE"/>
    </linearGradient>
  </defs>
</svg>
